<svg width="16" height="16" viewBox="0 0 16 16" fill="none" xmlns="http://www.w3.org/2000/svg">
<g clip-path="url(#clip0_108_1699)">
<path d="M11.6667 0H5.66675C4.9916 0.000734213 4.32976 0.187864 3.75418 0.540763C3.1786 0.893662 2.71163 1.39863 2.40475 2H1.66675C1.40153 2 1.14718 2.10536 0.959641 2.29289C0.772105 2.48043 0.666748 2.73478 0.666748 3C0.666748 3.26522 0.772105 3.51957 0.959641 3.70711C1.14718 3.89464 1.40153 4 1.66675 4H2.00008V5.33333H1.66675C1.40153 5.33333 1.14718 5.43869 0.959641 5.62623C0.772105 5.81376 0.666748 6.06812 0.666748 6.33333C0.666748 6.59855 0.772105 6.8529 0.959641 7.04044C1.14718 7.22798 1.40153 7.33333 1.66675 7.33333H2.00008V8.66667H1.66675C1.40153 8.66667 1.14718 8.77202 0.959641 8.95956C0.772105 9.1471 0.666748 9.40145 0.666748 9.66667C0.666748 9.93188 0.772105 10.1862 0.959641 10.3738C1.14718 10.5613 1.40153 10.6667 1.66675 10.6667H2.00008V12H1.66675C1.40153 12 1.14718 12.1054 0.959641 12.2929C0.772105 12.4804 0.666748 12.7348 0.666748 13C0.666748 13.2652 0.772105 13.5196 0.959641 13.7071C1.14718 13.8946 1.40153 14 1.66675 14H2.40475C2.71163 14.6014 3.1786 15.1063 3.75418 15.4592C4.32976 15.8121 4.9916 15.9993 5.66675 16H11.6667C12.6389 15.9989 13.5709 15.6123 14.2583 14.9249C14.9457 14.2375 15.3324 13.3055 15.3334 12.3333V3.66667C15.3324 2.69453 14.9457 1.76252 14.2583 1.07511C13.5709 0.387707 12.6389 0.00105878 11.6667 0V0ZM13.3334 12.3333C13.3334 12.7754 13.1578 13.1993 12.8453 13.5118C12.5327 13.8244 12.1088 14 11.6667 14H5.66675C5.22472 14 4.8008 13.8244 4.48824 13.5118C4.17568 13.1993 4.00008 12.7754 4.00008 12.3333V3.66667C4.00008 3.22464 4.17568 2.80072 4.48824 2.48816C4.8008 2.17559 5.22472 2 5.66675 2H11.6667C12.1088 2 12.5327 2.17559 12.8453 2.48816C13.1578 2.80072 13.3334 3.22464 13.3334 3.66667V12.3333ZM7.00008 6.33333C7.00008 5.89131 7.17568 5.46738 7.48824 5.15482C7.8008 4.84226 8.22472 4.66667 8.66675 4.66667C9.10878 4.66667 9.5327 4.84226 9.84526 5.15482C10.1578 5.46738 10.3334 5.89131 10.3334 6.33333C10.3334 6.77536 10.1578 7.19928 9.84526 7.51184C9.5327 7.82441 9.10878 8 8.66675 8C8.22472 8 7.8008 7.82441 7.48824 7.51184C7.17568 7.19928 7.00008 6.77536 7.00008 6.33333ZM11.3254 10.8213C11.3355 10.8855 11.3314 10.9511 11.3133 11.0134C11.2952 11.0758 11.2637 11.1335 11.2209 11.1823C11.1781 11.2312 11.1251 11.27 11.0656 11.2961C11.0061 11.3222 10.9417 11.3349 10.8767 11.3333H6.43608C6.37116 11.3349 6.30669 11.3222 6.24722 11.2961C6.18776 11.27 6.13475 11.2312 6.09195 11.1823C6.04915 11.1335 6.0176 11.0758 5.99954 11.0134C5.98148 10.9511 5.97734 10.8855 5.98741 10.8213C6.56141 7.97667 10.7521 7.97867 11.3254 10.8213Z" fill="#D0D3E7"/>
</g>
<defs>
<clipPath id="clip0_108_1699">
<rect width="16" height="16" fill="white"/>
</clipPath>
</defs>
</svg>
