<svg width="20" height="20" viewBox="0 0 20 20" fill="none" xmlns="http://www.w3.org/2000/svg">
<g clip-path="url(#clip0_108_607)">
<path d="M13.7501 -7.62939e-06H7.08342C5.64737 0.00175656 4.27064 0.573006 3.2552 1.58845C2.23976 2.60389 1.66851 3.98061 1.66675 5.41666V16.25C1.66785 17.2442 2.06329 18.1974 2.76632 18.9004C3.46934 19.6034 4.42252 19.9989 5.41675 20H13.7501C14.9652 19.9984 16.1301 19.5151 16.9893 18.6559C17.8485 17.7967 18.3319 16.6318 18.3334 15.4167V4.58333C18.3319 3.36822 17.8485 2.20333 16.9893 1.34412C16.1301 0.484917 14.9652 0.00153592 13.7501 -7.62939e-06V-7.62939e-06ZM6.66675 2.54249V12.5H5.41675C4.98994 12.5041 4.56705 12.5819 4.16675 12.73V5.41666C4.16873 4.71718 4.42246 4.04179 4.88152 3.51402C5.34058 2.98626 5.97429 2.64139 6.66675 2.54249ZM15.8334 15.4167C15.8334 15.9692 15.6139 16.4991 15.2232 16.8898C14.8325 17.2805 14.3026 17.5 13.7501 17.5H5.41675C5.08523 17.5 4.76729 17.3683 4.53286 17.1339C4.29844 16.8995 4.16675 16.5815 4.16675 16.25C4.16675 15.9185 4.29844 15.6005 4.53286 15.3661C4.76729 15.1317 5.08523 15 5.41675 15H15.8334V15.4167ZM9.16675 12.5V2.49999H13.7501C14.3026 2.49999 14.8325 2.71949 15.2232 3.11019C15.6139 3.50089 15.8334 4.03079 15.8334 4.58333V12.5H9.16675Z" fill="#D0D3E7"/>
</g>
<defs>
<clipPath id="clip0_108_607">
<rect width="20" height="20" fill="white"/>
</clipPath>
</defs>
</svg>
