<svg width="20" height="20" viewBox="0 0 20 20" fill="none" xmlns="http://www.w3.org/2000/svg">
<g clip-path="url(#clip0_108_1503)">
<path d="M13.9775 2.41634C13.355 1.88801 12.7025 1.33301 12.0383 0.729672C11.7358 0.453739 11.3763 0.247644 10.9854 0.125963C10.5944 0.00428259 10.1815 -0.0300118 9.77581 0.0255055C9.38121 0.0771157 9.00274 0.214684 8.66711 0.428505C8.33147 0.642327 8.04685 0.927192 7.83331 1.26301C7.04165 2.56346 6.44476 3.97287 6.06164 5.44634C5.8797 5.20442 5.64641 5.00584 5.37855 4.86486C5.11069 4.72389 4.81491 4.64404 4.51249 4.63105C4.21007 4.61806 3.90854 4.67226 3.62957 4.78974C3.35061 4.90723 3.10115 5.08508 2.89914 5.31051C1.48653 6.75513 0.704376 8.70094 0.724141 10.7213C0.705359 12.7718 1.37312 14.7696 2.62111 16.3966C3.8691 18.0237 5.62555 19.1864 7.61081 19.6997C8.38899 19.8976 9.18869 19.9984 9.99164 19.9997C11.2101 20.0013 12.4169 19.7627 13.5431 19.2974C14.6692 18.8322 15.6926 18.1494 16.5546 17.2883C17.4166 16.4271 18.1004 15.4044 18.5667 14.2788C19.0331 13.1531 19.2729 11.9465 19.2725 10.728C19.2725 6.91634 16.8191 4.83301 13.9775 2.41634ZM14.1591 16.0713C13.9207 16.2548 13.6702 16.4218 13.4091 16.5713C13.6483 16.072 13.7735 15.5258 13.7758 14.9722C13.7758 13.3663 12.6566 11.5022 11.2758 9.86801C11.1174 9.68261 10.9207 9.53375 10.6992 9.43169C10.4777 9.32962 10.2368 9.27676 9.99289 9.27676C9.74903 9.27676 9.50806 9.32962 9.28659 9.43169C9.06511 9.53375 8.86839 9.68261 8.70997 9.86801C6.74997 12.1663 5.52247 14.6513 6.66664 16.6663C5.6144 16.0745 4.74014 15.2114 4.13496 14.1668C3.52977 13.1222 3.21582 11.9344 3.22581 10.7272C3.19996 9.54485 3.59747 8.39221 4.34664 7.47717C4.46442 7.67051 4.59081 7.85745 4.72581 8.03801C4.94876 8.33904 5.25504 8.56814 5.60678 8.69699C5.95853 8.82584 6.34032 8.84879 6.70497 8.76301C7.07488 8.68053 7.41314 8.4931 7.67919 8.2232C7.94525 7.9533 8.12781 7.61239 8.20497 7.24134C8.51295 5.60576 9.10254 4.03606 9.94747 2.60217C9.96481 2.5737 9.9885 2.54963 10.0167 2.53184C10.0449 2.51406 10.0768 2.50305 10.11 2.49967C10.1541 2.49392 10.199 2.49787 10.2415 2.51126C10.2839 2.52464 10.3229 2.54714 10.3558 2.57717C11.0425 3.20134 11.7166 3.77467 12.36 4.31967C15.0175 6.57634 16.7725 8.06967 16.7725 10.7247C16.7759 11.7568 16.542 12.7759 16.0888 13.7033C15.6357 14.6306 14.9755 15.4414 14.1591 16.073V16.0713Z" fill="#D0D3E7"/>
</g>
<defs>
<clipPath id="clip0_108_1503">
<rect width="20" height="20" fill="white"/>
</clipPath>
</defs>
</svg>
