<svg width="20" height="20" viewBox="0 0 20 20" fill="none" xmlns="http://www.w3.org/2000/svg">
<path d="M12.4989 6.24888C12.4989 6.00163 12.5722 5.75993 12.7096 5.55436C12.8469 5.34878 13.0421 5.18855 13.2705 5.09393C13.4989 4.99932 13.7502 4.97456 13.9927 5.02279C14.2351 5.07103 14.4578 5.19009 14.6326 5.36492C14.8074 5.53975 14.9265 5.7625 14.9747 6.00499C15.0229 6.24749 14.9982 6.49884 14.9036 6.72727C14.809 6.9557 14.6488 7.15094 14.4432 7.2883C14.2377 7.42566 13.996 7.49898 13.7488 7.49898C13.4173 7.49898 13.0994 7.36727 12.865 7.13283C12.6306 6.89839 12.4989 6.58042 12.4989 6.24888ZM11.249 9.99918C11.4963 9.99918 11.7379 9.92587 11.9434 9.7885C12.149 9.65114 12.3092 9.4559 12.4038 9.22747C12.4984 8.99905 12.5231 8.74769 12.4749 8.5052C12.4267 8.2627 12.3077 8.03995 12.1329 7.86512C11.9581 7.69029 11.7353 7.57123 11.4929 7.523C11.2504 7.47476 10.9991 7.49952 10.7707 7.59414C10.5423 7.68875 10.3471 7.84898 10.2098 8.05456C10.0725 8.26014 9.99915 8.50183 9.99915 8.74908C9.99915 9.08063 10.1308 9.3986 10.3652 9.63304C10.5996 9.86748 10.9176 9.99918 11.249 9.99918ZM8.74926 12.4994C8.99646 12.4994 9.23812 12.4261 9.44366 12.2887C9.6492 12.1513 9.80941 11.9561 9.90401 11.7277C9.99861 11.4993 10.0234 11.2479 9.97513 11.0054C9.92691 10.7629 9.80787 10.5402 9.63307 10.3653C9.45826 10.1905 9.23555 10.0714 8.9931 10.0232C8.75064 9.97497 8.49933 9.99972 8.27094 10.0943C8.04256 10.189 7.84735 10.3492 7.71001 10.5548C7.57267 10.7603 7.49936 11.002 7.49936 11.2493C7.49936 11.5808 7.63105 11.8988 7.86545 12.1332C8.09985 12.3677 8.41776 12.4994 8.74926 12.4994ZM19.8658 2.95944L19.8033 3.13362C18.4251 6.9581 17.1085 10.5717 14.0746 13.7103C13.8492 15.8598 12.876 17.8618 11.3249 19.3666C10.8998 19.7713 10.336 19.9979 9.74917 20C9.15249 20 8.58024 19.7629 8.15832 19.3409C7.7364 18.9189 7.49936 18.3466 7.49936 17.7498V16.3905C7.00992 16.2109 6.55646 15.9453 6.16031 15.6063L4.63377 17.1339C4.3993 17.3684 4.08128 17.5002 3.74968 17.5002C3.41808 17.5002 3.10007 17.3684 2.86559 17.1339C2.63111 16.8994 2.49939 16.5813 2.49939 16.2497C2.49939 15.918 2.63111 15.6 2.86559 15.3655L4.39379 13.837C3.88319 13.2142 3.55318 12.4633 3.43971 11.666H2.24981C1.65312 11.666 1.08087 11.4289 0.658954 11.0069C0.237033 10.5849 0 10.0126 0 9.4158C0.00230243 8.82915 0.228877 8.2656 0.63328 7.84067C1.50091 6.95406 2.53531 6.24785 3.67693 5.76269C4.81855 5.27753 6.04485 5.02301 7.28521 5.01378C10.1816 2.60275 13.4397 1.43015 16.8677 0.193381L17.0411 0.130876C17.4357 -0.0113403 17.8626 -0.0382955 18.2719 0.0531606C18.6813 0.144617 19.0562 0.350707 19.3528 0.647347C19.6494 0.943988 19.8554 1.31893 19.9468 1.72835C20.0383 2.13777 20.0113 2.56477 19.8691 2.95944H19.8658ZM17.3052 2.69192C13.6755 4.00286 10.5283 5.19879 7.83267 7.89234C7.25892 8.54017 6.7244 9.22172 6.23197 9.93334C5.96966 10.3064 5.84762 10.7601 5.88741 11.2144C5.92721 11.6687 6.12628 12.0943 6.44945 12.416L7.63602 13.5995C7.95784 13.9217 8.38305 14.1199 8.83671 14.1593C9.29037 14.1986 9.74335 14.0765 10.1158 13.8145C10.8264 13.3248 11.4923 12.7732 12.1056 12.166C14.7987 9.46997 15.9986 6.32222 17.3052 2.69192Z" fill="#D0D3E7"/>
</svg>
