<svg width="16" height="16" viewBox="0 0 16 16" fill="none" xmlns="http://www.w3.org/2000/svg">
<g clip-path="url(#clip0_108_1690)">
<path d="M7.63487 9.34584C4.79371 9.60265 2.62915 12.0034 2.66687 14.8558V15.0005C2.66687 15.5528 3.11459 16.0005 3.66687 16.0005C4.21915 16.0005 4.66687 15.5528 4.66687 15.0005V14.8158C4.6368 13.0644 5.92931 11.5709 7.66687 11.3492C9.50102 11.1673 11.1354 12.5067 11.3172 14.3409C11.328 14.4493 11.3334 14.5582 11.3335 14.6672V15.0005C11.3335 15.5528 11.7812 16.0005 12.3335 16.0005C12.8858 16.0005 13.3335 15.5528 13.3335 15.0005V14.6672C13.3303 11.7183 10.9371 9.33046 7.98831 9.33371C7.8704 9.33387 7.75252 9.3379 7.63487 9.34584Z" fill="#D0D3E7"/>
<path d="M8.00024 8C10.2094 8 12.0002 6.20913 12.0002 4C12.0002 1.79087 10.2094 0 8.00024 0C5.79112 0 4.00024 1.79087 4.00024 4C4.00243 6.20822 5.79203 7.99778 8.00024 8ZM8.00024 2C9.10481 2 10.0002 2.89544 10.0002 4C10.0002 5.10456 9.10481 6 8.00024 6C6.89568 6 6.00024 5.10456 6.00024 4C6.00024 2.89544 6.89568 2 8.00024 2Z" fill="#D0D3E7"/>
</g>
<defs>
<clipPath id="clip0_108_1690">
<rect width="16" height="16" fill="white"/>
</clipPath>
</defs>
</svg>
